<svg aria-hidden="true" style="position: absolute; width: 0; height: 0; overflow: hidden;" version="1.1" xmlns="http://www.w3.org/2000/svg" xmlns:xlink="http://www.w3.org/1999/xlink">
<defs>
<symbol id="icon-green" viewBox="0 0 26 32">
<path fill="#46ebb0" style="fill: var(--color1, #46ebb0)" d="M25.885 19.057c0 7.148-5.795 12.943-12.943 12.943s-12.943-5.795-12.943-12.943v-19.057h25.885v19.057z"></path>
<path fill="#fff" style="fill: var(--color2, #fff)" d="M12.54 22.779c0-0.927 0.752 0 1.679 0s1.679-0.927 1.679 0c0 0.927-0.752 1.679-1.679 1.679s-1.679-0.752-1.679-1.679z"></path>
<path fill="#fff" style="fill: var(--color2, #fff)" d="M7.253 22.779c0-0.927 0.752 0 1.679 0s1.679-0.927 1.679 0c0 0.927-0.752 1.679-1.679 1.679s-1.679-0.752-1.679-1.679z"></path>
<path fill="#fff" style="fill: var(--color2, #fff)" d="M8.936 19.222c0-1.705 1.382-3.086 3.086-3.086s3.086 1.382 3.086 3.086c0 1.704-1.382-0.119-3.086-0.119s-3.086 1.823-3.086 0.119z"></path>
</symbol>
<symbol id="icon-pink" viewBox="0 0 32 32">
<path fill="#f472b7" style="fill: var(--color3, #f472b7)" d="M23.504 24.262c-4.689 4.276-11.859 4.048-16.015-0.509s-3.724-11.718 0.965-15.994 11.859-4.048 16.015 0.509c4.156 4.557 3.724 11.718-0.965 15.994z"></path>
<path fill="#fff" style="fill: var(--color2, #fff)" d="M11.205 13.958c0.281 0.308 0.393-0.054 0.71-0.343s0.719-0.395 0.438-0.703-0.766-0.324-1.083-0.034c-0.317 0.289-0.347 0.773-0.065 1.081z"></path>
<path fill="#fff" style="fill: var(--color2, #fff)" d="M9.011 15.958c0.281 0.308 0.393-0.054 0.71-0.343s0.719-0.395 0.438-0.703c-0.281-0.309-0.766-0.323-1.083-0.034s-0.347 0.773-0.065 1.081z"></path>
<path fill="#fff" style="fill: var(--color2, #fff)" d="M10.863 16.893c0.549 0.602 1.496 0.632 2.115 0.067s0.676-1.51 0.127-2.112c-0.549-0.602-0.464 0.5-1.083 1.064s-1.708 0.379-1.159 0.981z"></path>
</symbol>
<symbol id="icon-yellow-down" viewBox="0 0 32 32">
<path fill="#fad34f" style="fill: var(--color4, #fad34f)" d="M16.052 31.983c8.837 0 16-7.163 16-16s-7.163-16-16-16c-8.837 0-16 7.163-16 16s7.163 16 16 16z"></path>
<path fill="#fff" style="fill: var(--color2, #fff)" d="M20.363 20.954c0 1.146-0.929 0-2.076 0-1.146 0-2.076 1.146-2.076 0s0.929-2.076 2.076-2.076c1.147 0 2.076 0.929 2.076 2.076z"></path>
<path fill="#fff" style="fill: var(--color2, #fff)" d="M26.898 20.954c0 1.146-0.929 0-2.076 0-1.146 0-2.076 1.146-2.076 0s0.929-2.076 2.076-2.076c1.147 0 2.076 0.929 2.076 2.076z"></path>
<path fill="#fff" style="fill: var(--color2, #fff)" d="M24.818 25.352c0 2.108-1.709 3.815-3.815 3.815s-3.815-1.709-3.815-3.815c0-2.107 1.709 0.147 3.815 0.147s3.815-2.254 3.815-0.147z"></path>
</symbol>
<symbol id="icon-yellow-up" viewBox="0 0 32 32">
<path fill="#fad34f" style="fill: var(--color4, #fad34f)" d="M22.467 25.045c5.228-3.687 6.561-10.795 2.977-15.876s-10.726-6.212-15.954-2.525-6.561 10.795-2.977 15.876c3.583 5.081 10.726 6.212 15.954 2.525z"></path>
<path fill="#fff" style="fill: var(--color2, #fff)" d="M14.995 10.698c0.242 0.343-0.139 0.375-0.492 0.624s-0.545 0.622-0.788 0.278c-0.243-0.344-0.152-0.824 0.201-1.073s0.836-0.173 1.079 0.171z"></path>
<path fill="#fff" style="fill: var(--color2, #fff)" d="M17.44 8.974c0.242 0.343-0.139 0.375-0.492 0.624s-0.545 0.622-0.788 0.278c-0.243-0.344-0.152-0.824 0.201-1.073s0.836-0.173 1.079 0.171z"></path>
<path fill="#fff" style="fill: var(--color2, #fff)" d="M17.959 10.999c0.473 0.671 0.297 1.61-0.393 2.097s-1.634 0.338-2.107-0.333c-0.473-0.671 0.593-0.348 1.283-0.835s0.744-1.599 1.217-0.928z"></path>
</symbol>
<symbol id="icon-socials" viewBox="0 0 239 32">
<path fill="#696969" style="fill: var(--color5, #696969)" d="M5.422 26.798h-5.022v-16.274h5.022v16.274zM2.908 8.304c-1.606 0-2.908-1.338-2.908-2.954s1.303-2.927 2.908-2.927c1.606 0 2.908 1.311 2.908 2.927s-1.303 2.954-2.908 2.954zM24.219 26.798h-5.011v-7.922c0-1.888-0.038-4.309-2.611-4.309-2.611 0-3.011 2.051-3.011 4.173v8.058h-5.017v-16.274h4.817v2.22h0.070c0.67-1.279 2.308-2.628 4.752-2.628 5.082 0 6.017 3.368 6.017 7.742v8.939h-0.005z"></path>
<path fill="#696969" style="fill: var(--color5, #696969)" d="M99.84 8.46c0.019 0.265 0.019 0.53 0.019 0.795 0 8.081-6.244 17.392-17.657 17.392-3.516 0-6.782-1.003-9.53-2.744 0.5 0.057 0.98 0.076 1.499 0.076 2.901 0 5.572-0.965 7.704-2.612-2.728-0.057-5.015-1.817-5.802-4.239 0.384 0.057 0.768 0.095 1.172 0.095 0.557 0 1.114-0.076 1.633-0.208-2.843-0.568-4.976-3.028-4.976-5.999v-0.076c0.826 0.454 1.787 0.738 2.805 0.776-1.672-1.098-2.767-2.971-2.767-5.091 0-1.135 0.307-2.176 0.845-3.085 3.055 3.709 7.647 6.132 12.796 6.397-0.096-0.454-0.154-0.927-0.154-1.4 0-3.369 2.767-6.113 6.206-6.113 1.787 0 3.401 0.738 4.534 1.93 1.403-0.265 2.747-0.776 3.939-1.476-0.461 1.419-1.441 2.612-2.728 3.369 1.249-0.132 2.459-0.473 3.574-0.946-0.845 1.211-1.902 2.29-3.112 3.16z"></path>
<path fill="#696969" style="fill: var(--color5, #696969)" d="M155.975 30.28v-13.543h-4.575v-5.382h4.575v-4.24c0-4.607 2.839-7.115 6.984-7.115 1.986 0 3.692 0.148 4.187 0.213v4.814h-2.875c-2.255 0-2.69 1.065-2.69 2.62v3.708h5.087l-0.698 5.382h-4.39v13.543z"></path>
<path fill="#696969" style="fill: var(--color5, #696969)" d="M227.819 2.422c-6.148 0-12.226 3.818-12.226 9.996 0 3.929 2.374 6.162 3.812 6.162 0.593 0 0.936-1.54 0.936-1.976 0-0.519-1.421-1.624-1.421-3.784 0-4.488 3.669-7.669 8.414-7.669 4.083 0 7.102 2.16 7.102 6.128 0 2.964-1.276 8.523-5.412 8.523-1.493 0-2.769-1.005-2.769-2.445 0-2.11 1.583-4.153 1.583-6.329 0-3.695-5.628-3.025-5.628 1.44 0 0.938 0.126 1.976 0.576 2.83-0.826 3.315-2.517 8.255-2.517 11.671 0 1.055 0.162 2.093 0.269 3.148 0.203 0.212 0.102 0.19 0.414 0.084 3.019-3.851 2.912-4.605 4.279-9.645 0.736 1.306 2.643 2.009 4.152 2.009 6.364 0 9.224-5.777 9.224-10.984 0-5.542-5.143-9.159-10.788-9.159z"></path>
</symbol>
</defs>
</svg>
